<svg width="125" height="28" viewBox="0 0 125 28" fill="none" xmlns="http://www.w3.org/2000/svg">
<path d="M2.82641 0.475948C2.90617 0.195347 3.17425 -0.00544284 3.46179 0.000112483L30.5724 0.52865C30.7547 0.532203 30.9179 0.619038 31.0147 0.76417C31.1114 0.909308 31.1309 1.09642 31.0676 1.27134L21.6606 27.2447C21.5604 27.5211 21.279 27.7032 20.9941 27.6759C20.7092 27.6486 20.5038 27.4198 20.5072 27.1343L20.6613 14.448L20.6388 14.475L20.3185 9.31916C20.2661 8.47544 19.7601 7.76174 18.9899 7.44472L14.8328 5.73359L14.8402 5.73112L3.13866 1.1383C2.87851 1.03619 2.7467 0.756595 2.82641 0.475948Z" fill="url(#paint0_linear_77_2201)"/>
<path d="M0.00168921 11.1373C-0.0201192 10.8505 0.17131 10.5716 0.455946 10.4751L14.6627 5.66347L18.9899 7.44472C19.7601 7.76174 20.2661 8.47544 20.3185 9.31916L20.6448 14.5673L20.6253 14.6012L20.6261 14.5403L10.969 26.2243C10.7759 26.4579 10.4528 26.5358 10.2013 26.4093C9.94985 26.2828 9.84169 25.9882 9.9443 25.7091L14.3297 13.7876C14.687 12.8164 14.0453 11.8522 13.0311 11.8364L0.544662 11.6408C0.252348 11.6362 0.023541 11.4241 0.00168921 11.1373Z" fill="url(#paint1_linear_77_2201)"/>
<path d="M38.5489 18.8882L42.8831 6.60205H45.7554L50.1134 18.8882H51.283V20.7161H45.8039V18.8882H47.7278L46.8258 16.1583H41.6887L40.763 18.8882H42.7529V20.7161H37.3545V18.8882H38.5478H38.5489ZM46.2906 14.5487L44.2469 8.45475L42.225 14.5487H46.2917H46.2906Z" fill="#212121"/>
<path d="M57.32 20.9353C55.518 20.9353 53.7648 20.6426 52.3276 19.9846V17.352H54.2503V18.8384C55.0552 19.2047 56.0047 19.3753 57.2455 19.3753C59.1684 19.3753 60.1912 18.8147 60.1912 17.7906C60.1912 17.0592 59.656 16.693 58.3893 16.4985L55.6875 16.1324C53.4 15.8158 52.3027 14.8403 52.3027 13.1832C52.3027 11.2084 54.2752 9.89258 57.416 9.89258C59.0216 9.89258 60.5322 10.1129 62.0179 10.6488V12.8863H60.0951V11.8922C59.3895 11.648 58.3903 11.4774 57.3933 11.4774C55.6389 11.4774 54.6656 12.0132 54.6656 12.94C54.6656 13.6476 55.2009 14.0862 56.3943 14.2569L59.219 14.6469C61.5065 14.9883 62.6038 15.9389 62.6038 17.5475C62.6038 19.5947 60.558 20.9363 57.32 20.9363V20.9353Z" fill="#212121"/>
<path d="M71.0888 19.0591C71.9153 19.0591 72.8411 18.9371 74.6441 18.3278L75.1534 20.0585C73.1097 20.7898 71.842 20.9604 70.6983 20.9604C67.8735 20.9604 66.5345 19.7419 66.5345 17.5965V11.9411H62.9297V10.1619H66.5345V7.11438H68.7982V10.1619H74.5697V11.9411H68.7982V17.2551C68.7982 18.425 69.5039 19.0591 71.0878 19.0591H71.0888Z" fill="#212121"/>
<path d="M86.2393 15.4508C86.2393 12.2326 88.7706 9.94128 92.0582 9.94128C95.3458 9.94128 97.8792 12.2326 97.8792 15.4508C97.8792 18.6689 95.3458 20.9602 92.0582 20.9602C88.7706 20.9602 86.2393 18.6689 86.2393 15.4508ZM95.662 15.4508C95.662 13.3539 94.1039 11.8426 92.0572 11.8426C90.0104 11.8426 88.4544 13.3539 88.4544 15.4508C88.4544 17.5476 90.0124 19.0589 92.0572 19.0589C94.1018 19.0589 95.662 17.5476 95.662 15.4508Z" fill="#212121"/>
<path d="M82.728 13.2322C83.5565 12.3063 84.2127 11.9898 85.2117 11.9898C85.5517 11.9898 85.936 12.0632 86.4464 12.2277C86.7801 11.5677 87.2038 10.9678 87.7255 10.4536C86.901 10.1164 86.1602 9.91675 85.4545 9.91675C84.0669 9.91675 83.0679 10.5747 82.1679 12.1098L81.0954 13.767V10.1598H75.4966V11.9381H78.8318V18.9351H75.4966V20.7144H84.6021V18.9351H81.0954V15.0342L82.7269 13.2301L82.728 13.2322Z" fill="#212121"/>
<path d="M119.155 18.9307V8.59863H116.618V6.79248H124.048V8.59863H121.489V18.9307H124.048V20.7368H116.618V18.9307H119.155Z" fill="#212121"/>
<path d="M102.894 18.8882L107.229 6.60205H110.101L114.459 18.8882H115.628V20.7161H110.149V18.8882H112.073L111.171 16.1583H106.034L105.108 18.8882H107.098V20.7161H101.7V18.8882H102.894ZM110.636 14.5487L108.592 8.45475L106.57 14.5487H110.636Z" fill="#212121"/>
<defs>
<linearGradient id="paint0_linear_77_2201" x1="19.2226" y1="30.4427" x2="13.3616" y2="16.0209" gradientUnits="userSpaceOnUse">
<stop stop-color="#6D5BD0"/>
<stop offset="1" stop-color="#A1D1A8"/>
</linearGradient>
<linearGradient id="paint1_linear_77_2201" x1="18.4747" y1="15.2901" x2="7.57306" y2="14.8133" gradientUnits="userSpaceOnUse">
<stop stop-color="#6D5BD0"/>
<stop offset="1" stop-color="#198CF7"/>
</linearGradient>
</defs>
</svg>
